# xmcd CD database file
#
# Track frame offsets:
#	150
#	21948
#	39873
#	55568
#	70653
#	86028
#	103090
#	120708
#	141603
#	160688
#
# Disc length: 2532 seconds
#
# Revision: 0
# Processed by: cddbd v1.5.2PL0 Copyright (c) Steve Scherf et al.
# Submitted via: CDex 1.70beta2
#
DISCID=8009e20a
DTITLE=Joe Newman-Zoot Sims - Locking Horns
DYEAR=1957
DGENRE=Jazz
TTITLE0=01-Corky
TTITLE1=01-Mambo for Joe
TTITLE2=03-Wolfafunt's Lament
TTITLE3=04-Midnite Fantasy
TTITLE4=05-'Tarter Pie
TTITLE5=06-Oh Shay
TTITLE6=07-Bassing Around
TTITLE7=08-Oh Joe
TTITLE8=09-Susette
TTITLE9=10-Similar Souls
EXTD=YEAR: 1957
EXTT0=
EXTT1=
EXTT2=
EXTT3=
EXTT4=
EXTT5=
EXTT6=
EXTT7=
EXTT8=
EXTT9=
PLAYORDER=
